<svg width="73" height="73" viewBox="0 0 73 73" fill="none" xmlns="http://www.w3.org/2000/svg">
<g clip-path="url(#clip0_34108_97)">
<path d="M37.0678 0V-1H36.0678C28.7365 -1 21.5698 1.17399 15.474 5.24705C9.37827 9.32011 4.62719 15.1093 1.82161 21.8825L2.73589 22.2612L1.8216 21.8825C-0.983968 28.6558 -1.71804 36.1089 -0.287769 43.2994L0.693017 43.1043L-0.287768 43.2994C1.1425 50.4898 4.67287 57.0947 9.85688 62.2787L10.564 61.5716L9.85689 62.2787C15.0409 67.4627 21.6457 70.9931 28.8362 72.4234L29.0313 71.4426L28.8362 72.4234C36.0267 73.8536 43.4797 73.1196 50.253 70.314C57.0263 67.5084 62.8155 62.7573 66.8885 56.6616L66.0571 56.106L66.8886 56.6616C70.9615 50.5658 73.1356 43.3991 73.1356 36.0678V35.0678H72.1356H54.1017H53.1017V36.0678C53.1017 39.4368 52.1026 42.7301 50.2309 45.5313C48.3592 48.3326 45.6989 50.5158 42.5864 51.805L42.9691 52.7289L42.5864 51.805C39.4738 53.0943 36.0489 53.4316 32.7447 52.7744C29.4403 52.1171 26.4052 50.4948 24.023 48.1126C21.6408 45.7304 20.0185 42.6952 19.3612 39.3909C18.704 36.0867 19.0413 32.6618 20.3305 29.5492C21.6198 26.4367 23.803 23.7763 26.6042 21.9047L26.6043 21.9047C29.4055 20.0329 32.6988 19.0339 36.0678 19.0339H37.0678V18.0339V0Z" fill="black" stroke="black" stroke-width="2"/>
<path d="M36.0678 0C31.3313 -5.64821e-08 26.6412 0.932921 22.2652 2.7455C17.8893 4.55807 13.9132 7.21481 10.564 10.564C7.21481 13.9132 4.55807 17.8893 2.7455 22.2653C0.93292 26.6412 -7.1519e-07 31.3313 0 36.0678H18.0339C18.0339 33.6996 18.5004 31.3545 19.4066 29.1665C20.3129 26.9785 21.6413 24.9905 23.3159 23.3159C24.9905 21.6413 26.9785 20.3129 29.1665 19.4066C31.3545 18.5004 33.6995 18.0339 36.0678 18.0339V0Z" fill="#E31414"/>
<path d="M36.0678 47.339C42.2927 47.339 47.339 42.2927 47.339 36.0678C47.339 29.8429 42.2927 24.7966 36.0678 24.7966C29.8429 24.7966 24.7966 29.8429 24.7966 36.0678C24.7966 42.2927 29.8429 47.339 36.0678 47.339Z" fill="#E31414"/>
<path d="M47.339 36.0678C47.339 34.5877 47.0475 33.122 46.481 31.7545C45.9146 30.387 45.0844 29.1445 44.0377 28.0979C42.9911 27.0513 41.7486 26.221 40.3811 25.6546C39.0136 25.0882 37.548 24.7966 36.0678 24.7966C34.5876 24.7966 33.122 25.0882 31.7545 25.6546C30.387 26.221 29.1445 27.0513 28.0979 28.0979C27.0512 29.1445 26.221 30.387 25.6546 31.7545C25.0882 33.122 24.7966 34.5877 24.7966 36.0678H36.0678H47.339Z" fill="black"/>
</g>
<defs>
<clipPath id="clip0_34108_97">
<rect width="72.14" height="72.14" fill="white"/>
</clipPath>
</defs>
</svg>
